<svg width="17" height="10" viewBox="0 0 17 10" fill="none" xmlns="http://www.w3.org/2000/svg">
  <path
    d="M8.56494 9.3693C8.77557 9.35423 8.97507 9.26903 9.13159 9.12728L16.6869 2.3275C16.7792 2.24456 16.8542 2.14427 16.9077 2.03234C16.9612 1.92041 16.9921 1.79904 16.9987 1.67516C17.0053 1.55128 16.9874 1.42731 16.946 1.31034C16.9047 1.19337 16.8408 1.08569 16.7578 0.993442C16.6749 0.901193 16.5746 0.826187 16.4626 0.772706C16.3507 0.719225 16.2293 0.688317 16.1054 0.681746C15.9815 0.675175 15.8576 0.693071 15.7406 0.734411C15.6237 0.775751 15.516 0.839727 15.4237 0.922683L8.5 7.15582L1.57627 0.922683C1.48403 0.839727 1.37637 0.775751 1.2594 0.734411C1.14244 0.693071 1.01848 0.675175 0.894594 0.681746C0.770712 0.688317 0.64933 0.719225 0.537395 0.772706C0.425459 0.826187 0.325142 0.901193 0.242195 0.993442C0.15925 1.08569 0.0952854 1.19337 0.0539589 1.31034C0.0126324 1.42731 -0.00524139 1.55128 0.00134277 1.67516C0.00792694 1.79904 0.0388546 1.92041 0.0923481 2.03234C0.145844 2.14427 0.220861 2.24456 0.31312 2.3275L7.86843 9.12728C7.96237 9.21226 8.07244 9.27749 8.1921 9.31906C8.31175 9.36064 8.43855 9.37772 8.56494 9.3693Z"
    fill="black" />
</svg>