<svg width="132" height="100" viewBox="0 0 132 100" fill="none" xmlns="http://www.w3.org/2000/svg">
<path d="M82 0H50C22.3858 0 0 22.3858 0 50C0 77.6142 22.3858 100 50 100H82C109.614 100 132 77.6142 132 50C132 22.3858 109.614 0 82 0Z" fill="black"/>
<path d="M66.4192 76.2167L66.4209 76.2157L77.6547 69.4492C84.4154 65.3773 88.4604 58.705 88.4604 51.591V32.3186C88.4736 31.7445 87.9435 31.3665 87.41 31.3665H45.9817C45.4402 31.3665 44.9215 31.7579 44.9215 32.3145V52.1144C44.9215 58.8957 48.6655 65.3769 54.9162 69.4669L65.2053 76.1997C65.2056 76.2 65.2056 76.2 65.206 76.2003C65.3936 76.3238 65.6151 76.3806 65.8286 76.3806C66.0391 76.3806 66.244 76.3207 66.4192 76.2167ZM86.3591 51.2565H86.3498V51.591C86.3498 58.0582 82.668 64.1495 76.4795 67.8833L65.8653 74.2809L56.1799 67.9391C50.4534 64.191 47.0515 58.2686 47.0515 52.1144V33.2626H86.3591V51.2565Z" fill="white" stroke="white" stroke-width="2"/>
<path d="M104.011 41.4716H29.3718V61.204H104.011V41.4716Z" fill="black"/>
<path d="M39.4262 55.8501C39.2714 56 39.0448 56.1123 38.7462 56.1872C38.4587 56.2729 38.1104 56.3157 37.7013 56.3157C37.2921 56.3157 36.9051 56.2568 36.5402 56.1391C36.1753 56.0214 35.8768 55.7377 35.6445 55.2882L34.0025 52.0454C33.8366 51.7137 33.6873 51.4033 33.5547 51.1143C33.422 50.8147 33.2782 50.4722 33.1234 50.0869L33.0239 50.103C33.0681 50.6809 33.0902 51.2695 33.0902 51.8688C33.1013 52.4682 33.1068 53.0568 33.1068 53.6347V56.123C32.9852 56.1551 32.7972 56.1872 32.5429 56.2193C32.2996 56.2515 32.0564 56.2675 31.8131 56.2675C31.5698 56.2675 31.3542 56.2515 31.1662 56.2193C30.9782 56.1872 30.8234 56.123 30.7018 56.0267C30.5802 55.9304 30.4862 55.802 30.4198 55.6414C30.3535 55.4702 30.3203 55.2508 30.3203 54.9832V46.9565C30.4751 46.7424 30.7129 46.5819 31.0335 46.4749C31.3542 46.3678 31.697 46.3143 32.0619 46.3143C32.471 46.3143 32.858 46.3785 33.2229 46.507C33.5989 46.6247 33.8974 46.903 34.1186 47.3418L35.7772 50.5846C35.9431 50.9163 36.0924 51.2321 36.2251 51.5317C36.3578 51.8207 36.5015 52.1578 36.6563 52.5431L36.7392 52.527C36.695 51.9491 36.6674 51.3712 36.6563 50.7933C36.6453 50.2153 36.6397 49.6374 36.6397 49.0595V46.4588C36.7614 46.4267 36.9438 46.3946 37.1871 46.3625C37.4414 46.3304 37.6902 46.3143 37.9335 46.3143C38.42 46.3143 38.7904 46.4 39.0448 46.5712C39.2991 46.7317 39.4262 47.0742 39.4262 47.5986V55.8501ZM45.6247 56.4441C44.9723 56.4441 44.3641 56.3585 43.8002 56.1872C43.2473 56.0053 42.7608 55.7377 42.3406 55.3846C41.9315 55.0314 41.6053 54.5872 41.362 54.0521C41.1298 53.517 41.0137 52.8909 41.0137 52.1739C41.0137 51.4675 41.1298 50.8628 41.362 50.3598C41.6053 49.8461 41.9204 49.4287 42.3074 49.1076C42.6944 48.7759 43.1368 48.5351 43.6343 48.3852C44.1319 48.2247 44.6406 48.1444 45.1603 48.1444C45.7463 48.1444 46.2771 48.2301 46.7526 48.4013C47.2391 48.5725 47.6538 48.808 47.9966 49.1076C48.3504 49.4073 48.6213 49.7658 48.8093 50.1832C49.0083 50.6006 49.1079 51.0555 49.1079 51.5478C49.1079 51.9117 49.0028 52.1899 48.7927 52.3826C48.5826 52.5752 48.2896 52.6983 47.9136 52.7518L43.8168 53.3458C43.9384 53.6989 44.1872 53.9665 44.5632 54.1484C44.9391 54.3197 45.3704 54.4053 45.8569 54.4053C46.3103 54.4053 46.736 54.3518 47.1341 54.2448C47.5432 54.127 47.8749 53.9933 48.1293 53.8434C48.3062 53.9505 48.4555 54.1003 48.5771 54.2929C48.6987 54.4856 48.7595 54.6889 48.7595 54.903C48.7595 55.3846 48.5273 55.7431 48.0629 55.9785C47.7091 56.1605 47.311 56.2836 46.8687 56.3478C46.4264 56.412 46.0117 56.4441 45.6247 56.4441ZM45.1603 50.1351C44.8949 50.1351 44.6627 50.1779 44.4637 50.2635C44.2757 50.3491 44.1209 50.4615 43.9992 50.6006C43.8776 50.729 43.7836 50.8789 43.7173 51.0501C43.662 51.2107 43.6288 51.3765 43.6178 51.5478L46.454 51.0983C46.4209 50.8842 46.2992 50.6702 46.0891 50.4561C45.879 50.2421 45.5694 50.1351 45.1603 50.1351ZM54.3298 48.1444C54.7832 48.1444 55.2255 48.2086 55.6567 48.3371C56.099 48.4548 56.4805 48.6367 56.8012 48.8829C57.1329 48.6688 57.5033 48.4923 57.9125 48.3531C58.3326 48.214 58.8358 48.1444 59.4218 48.1444C59.842 48.1444 60.2511 48.1979 60.6492 48.305C61.0583 48.412 61.4177 48.5832 61.7273 48.8187C62.048 49.0434 62.3023 49.3484 62.4903 49.7337C62.6783 50.1083 62.7723 50.5685 62.7723 51.1143V56.1712C62.6617 56.2033 62.4848 56.2354 62.2415 56.2675C62.0093 56.2996 61.766 56.3157 61.5117 56.3157C61.2684 56.3157 61.0473 56.2996 60.8483 56.2675C60.6603 56.2354 60.4999 56.1712 60.3672 56.0749C60.2346 55.9785 60.1295 55.8501 60.0521 55.6896C59.9858 55.5183 59.9526 55.2989 59.9526 55.0314V51.1946C59.9526 50.8735 59.8586 50.6434 59.6706 50.5043C59.4826 50.3545 59.2283 50.2795 58.9076 50.2795C58.7528 50.2795 58.587 50.317 58.4101 50.3919C58.2331 50.4561 58.1004 50.5257 58.012 50.6006C58.023 50.6434 58.0286 50.6862 58.0286 50.729C58.0286 50.7612 58.0286 50.7933 58.0286 50.8254V56.1712C57.9069 56.2033 57.7245 56.2354 57.4812 56.2675C57.249 56.2996 57.0113 56.3157 56.768 56.3157C56.5247 56.3157 56.3036 56.2996 56.1045 56.2675C55.9166 56.2354 55.7562 56.1712 55.6235 56.0749C55.4908 55.9785 55.3858 55.8501 55.3084 55.6896C55.2421 55.5183 55.2089 55.2989 55.2089 55.0314V51.1946C55.2089 50.8735 55.1038 50.6434 54.8937 50.5043C54.6947 50.3545 54.4514 50.2795 54.1639 50.2795C53.9649 50.2795 53.7935 50.3117 53.6498 50.3759C53.506 50.4294 53.3844 50.4829 53.2849 50.5364V56.1712C53.1743 56.2033 52.9974 56.2354 52.7541 56.2675C52.5219 56.2996 52.2786 56.3157 52.0243 56.3157C51.781 56.3157 51.5599 56.2996 51.3608 56.2675C51.1729 56.2354 51.0125 56.1712 50.8798 56.0749C50.7471 55.9785 50.6421 55.8501 50.5647 55.6896C50.4983 55.5183 50.4652 55.2989 50.4652 55.0314V50.1832C50.4652 49.8943 50.526 49.6642 50.6476 49.4929C50.7803 49.3217 50.9572 49.1612 51.1784 49.0113C51.5543 48.7545 52.0188 48.5458 52.5716 48.3852C53.1356 48.2247 53.7216 48.1444 54.3298 48.1444ZM68.7551 56.4441C68.1027 56.4441 67.4946 56.3585 66.9306 56.1872C66.3777 56.0053 65.8912 55.7377 65.471 55.3846C65.0619 55.0314 64.7357 54.5872 64.4924 54.0521C64.2602 53.517 64.1441 52.8909 64.1441 52.1739C64.1441 51.4675 64.2602 50.8628 64.4924 50.3598C64.7357 49.8461 65.0508 49.4287 65.4378 49.1076C65.8249 48.7759 66.2672 48.5351 66.7648 48.3852C67.2623 48.2247 67.771 48.1444 68.2907 48.1444C68.8768 48.1444 69.4075 48.2301 69.883 48.4013C70.3695 48.5725 70.7842 48.808 71.127 49.1076C71.4808 49.4073 71.7517 49.7658 71.9397 50.1832C72.1387 50.6006 72.2383 51.0555 72.2383 51.5478C72.2383 51.9117 72.1332 52.1899 71.9231 52.3826C71.713 52.5752 71.42 52.6983 71.044 52.7518L66.9472 53.3458C67.0688 53.6989 67.3176 53.9665 67.6936 54.1484C68.0695 54.3197 68.5008 54.4053 68.9873 54.4053C69.4407 54.4053 69.8664 54.3518 70.2645 54.2448C70.6736 54.127 71.0053 53.9933 71.2597 53.8434C71.4366 53.9505 71.5859 54.1003 71.7075 54.2929C71.8291 54.4856 71.8899 54.6889 71.8899 54.903C71.8899 55.3846 71.6577 55.7431 71.1933 55.9785C70.8395 56.1605 70.4414 56.2836 69.9991 56.3478C69.5568 56.412 69.1421 56.4441 68.7551 56.4441ZM68.2907 50.1351C68.0253 50.1351 67.7931 50.1779 67.5941 50.2635C67.4061 50.3491 67.2513 50.4615 67.1297 50.6006C67.008 50.729 66.914 50.8789 66.8477 51.0501C66.7924 51.2107 66.7592 51.3765 66.7482 51.5478L69.5844 51.0983C69.5513 50.8842 69.4296 50.6702 69.2195 50.4561C69.0094 50.2421 68.6998 50.1351 68.2907 50.1351ZM73.8772 56.1872C73.7003 56.0374 73.5565 55.8608 73.446 55.6575C73.3464 55.4541 73.2967 55.224 73.2967 54.9672C73.2967 54.7531 73.3464 54.5444 73.446 54.3411C73.5565 54.127 73.6892 53.929 73.844 53.7471L76.6969 50.5043H73.645C73.5786 50.3866 73.5123 50.2367 73.446 50.0548C73.3907 49.8729 73.363 49.6749 73.363 49.4608C73.363 49.0862 73.446 48.8187 73.6118 48.6581C73.7887 48.4869 74.021 48.4013 74.3085 48.4013H79.5332C79.7101 48.5511 79.8483 48.7277 79.9478 48.9311C80.0584 49.1344 80.1137 49.3645 80.1137 49.6214C80.1137 49.8354 80.0584 50.0494 79.9478 50.2635C79.8483 50.4668 79.7211 50.6595 79.5663 50.8414L76.7798 54.0842H80.0308C80.0971 54.202 80.1579 54.3518 80.2132 54.5337C80.2795 54.7157 80.3127 54.9137 80.3127 55.1277C80.3127 55.5023 80.2243 55.7752 80.0473 55.9464C79.8815 56.107 79.6548 56.1872 79.3673 56.1872H73.8772ZM81.5145 46.218C81.5145 45.8113 81.6528 45.4688 81.9292 45.1906C82.2167 44.9123 82.5927 44.7732 83.0571 44.7732C83.5215 44.7732 83.8919 44.9123 84.1684 45.1906C84.4559 45.4688 84.5996 45.8113 84.5996 46.218C84.5996 46.6247 84.4559 46.9672 84.1684 47.2454C83.8919 47.5237 83.5215 47.6628 83.0571 47.6628C82.5927 47.6628 82.2167 47.5237 81.9292 47.2454C81.6528 46.9672 81.5145 46.6247 81.5145 46.218ZM84.4669 56.1712C84.3453 56.1926 84.1628 56.2193 83.9196 56.2515C83.6874 56.2943 83.4496 56.3157 83.2064 56.3157C82.9631 56.3157 82.7419 56.2996 82.5429 56.2675C82.3549 56.2354 82.1946 56.1712 82.0619 56.0749C81.9292 55.9785 81.8242 55.8501 81.7468 55.6896C81.6804 55.5183 81.6472 55.2989 81.6472 55.0314V48.4976C81.7689 48.4762 81.9458 48.4495 82.178 48.4173C82.4213 48.3745 82.6645 48.3531 82.9078 48.3531C83.1511 48.3531 83.3667 48.3692 83.5547 48.4013C83.7537 48.4334 83.9196 48.4976 84.0523 48.5939C84.185 48.6903 84.2845 48.824 84.3508 48.9953C84.4282 49.1558 84.4669 49.3699 84.4669 49.6374V56.1712ZM85.9137 52.2862C85.9137 51.5799 86.0243 50.9698 86.2455 50.4561C86.4666 49.9317 86.7707 49.4983 87.1577 49.1558C87.5558 48.8133 88.0147 48.5618 88.5344 48.4013C89.0652 48.2301 89.6346 48.1444 90.2428 48.1444C90.4639 48.1444 90.6796 48.1658 90.8897 48.2086C91.0998 48.2408 91.2711 48.2836 91.4038 48.3371V45.7364C91.5144 45.7043 91.6913 45.6722 91.9346 45.6401C92.1779 45.5973 92.4267 45.5759 92.681 45.5759C92.9243 45.5759 93.1399 45.5919 93.3279 45.624C93.5269 45.6561 93.6928 45.7204 93.8254 45.8167C93.9581 45.913 94.0577 46.0468 94.124 46.218C94.1904 46.3785 94.2235 46.5926 94.2235 46.8602V54.4695C94.2235 54.9725 93.9803 55.3739 93.4937 55.6735C93.1731 55.8769 92.7584 56.0535 92.2497 56.2033C91.7411 56.3638 91.155 56.4441 90.4916 56.4441C89.7728 56.4441 89.126 56.3478 88.551 56.1551C87.987 55.9625 87.506 55.6842 87.108 55.3204C86.7209 54.9565 86.4224 54.523 86.2123 54.02C86.0133 53.5063 85.9137 52.9284 85.9137 52.2862ZM90.6243 50.2795C90.0272 50.2795 89.5683 50.4454 89.2476 50.7772C88.9269 51.109 88.7666 51.612 88.7666 52.2862C88.7666 52.9498 88.9159 53.4528 89.2144 53.7953C89.513 54.127 89.9442 54.2929 90.5082 54.2929C90.7072 54.2929 90.8841 54.2662 91.0389 54.2127C91.2048 54.1484 91.332 54.0789 91.4204 54.004V50.4722C91.1993 50.3438 90.9339 50.2795 90.6243 50.2795ZM99.4306 54.4535C99.6186 54.4535 99.8232 54.4374 100.044 54.4053C100.277 54.3625 100.448 54.309 100.558 54.2448V52.9605L99.3643 53.0568C99.0546 53.0782 98.8003 53.1424 98.6013 53.2494C98.4023 53.3565 98.3027 53.517 98.3027 53.7311C98.3027 53.9451 98.3857 54.1217 98.5515 54.2608C98.7285 54.3892 99.0215 54.4535 99.4306 54.4535ZM99.2979 48.1444C99.895 48.1444 100.437 48.2033 100.923 48.321C101.421 48.4387 101.841 48.6207 102.184 48.8668C102.538 49.1023 102.809 49.4073 102.997 49.7819C103.185 50.1458 103.279 50.5792 103.279 51.0822V54.6782C103.279 54.9565 103.196 55.1866 103.03 55.3685C102.875 55.5398 102.687 55.6896 102.466 55.818C101.747 56.2354 100.735 56.4441 99.4306 56.4441C98.8446 56.4441 98.3138 56.3906 97.8383 56.2836C97.3739 56.1765 96.9703 56.016 96.6275 55.802C96.2958 55.5879 96.0359 55.315 95.8479 54.9832C95.671 54.6515 95.5826 54.2662 95.5826 53.8274C95.5826 53.0889 95.8092 52.5217 96.2626 52.1257C96.716 51.7297 97.4181 51.4836 98.3691 51.3872L100.542 51.1625V51.0501C100.542 50.7397 100.398 50.5204 100.111 50.3919C99.8342 50.2528 99.4306 50.1832 98.8998 50.1832C98.4797 50.1832 98.0705 50.226 97.6725 50.3117C97.2744 50.3973 96.915 50.5043 96.5943 50.6327C96.4506 50.5364 96.329 50.3919 96.2294 50.1993C96.1299 49.9959 96.0802 49.7872 96.0802 49.5732C96.0802 49.2949 96.1465 49.0755 96.2792 48.915C96.423 48.7438 96.6386 48.5993 96.9261 48.4816C97.2467 48.3638 97.6227 48.2782 98.0539 48.2247C98.4962 48.1712 98.9109 48.1444 99.2979 48.1444Z" fill="white"/>
</svg>
