<svg width="24" height="24" viewBox="0 0 24 24" fill="none" xmlns="http://www.w3.org/2000/svg">
<path d="M23.4711 3.49457C23.1497 3.36 22.782 3.43543 22.5369 3.68057L18.8683 7.34914L16.7614 5.16343L20.3331 1.452C20.5714 1.20429 20.6383 0.838286 20.5037 0.522C20.3683 0.205714 20.058 0 19.7143 0H13.7143C13.4871 0 13.2686 0.09 13.1083 0.251143L9.67971 3.67971C9.51857 3.84086 9.42857 4.05857 9.42857 4.28571V9.07372L1.13914 17.364C0.404571 18.0986 0 19.0749 0 20.1129C0 22.2566 1.74429 24 3.888 24C4.92686 24 5.90314 23.5954 6.63686 22.8617L14.9263 14.5714H19.7143C19.9414 14.5714 20.16 14.4814 20.3203 14.3203L23.7489 10.8917C23.91 10.7314 24 10.5137 24 10.2857V4.28571C24 3.93943 23.7909 3.62657 23.4711 3.49457ZM5.74886 19.464L4.89171 20.3211C4.72457 20.4883 4.50514 20.5714 4.28571 20.5714C4.06629 20.5714 3.84686 20.4874 3.67971 20.3203C3.34457 19.9851 3.34457 19.4434 3.67971 19.1083L4.53686 18.2511C4.872 17.916 5.41371 17.916 5.74886 18.2511C6.084 18.5863 6.084 19.1289 5.74886 19.464Z" fill="white"/>
</svg>
