<svg width="28" height="27" viewBox="0 0 28 27" fill="none" xmlns="http://www.w3.org/2000/svg">
<path d="M19.3545 19.9873V22.0269C19.3545 24.2761 17.5247 26.1059 15.2754 26.1059H5.0268C2.77755 26.1059 0.947754 24.2761 0.947754 22.0269V4.07905C0.947754 1.8298 2.77755 0 5.0268 0H15.2754C17.5247 0 19.3545 1.8298 19.3545 4.07905V6.11857C19.3545 6.68183 18.898 7.13833 18.3347 7.13833C17.7714 7.13833 17.3149 6.68183 17.3149 6.11857V4.07905C17.3149 2.95452 16.3999 2.03952 15.2754 2.03952H5.0268C3.90228 2.03952 2.98728 2.95452 2.98728 4.07905V22.0269C2.98728 23.1514 3.90228 24.0664 5.0268 24.0664H15.2754C16.3999 24.0664 17.3149 23.1514 17.3149 22.0269V19.9873C17.3149 19.4241 17.7714 18.9676 18.3347 18.9676C18.898 18.9676 19.3545 19.4241 19.3545 19.9873ZM26.307 11.3012L24.0235 9.01772C23.6251 8.61938 22.9794 8.61938 22.5812 9.01772C22.1829 9.41587 22.1829 10.0616 22.5812 10.4597L24.2055 12.0842H11.9612C11.3979 12.0842 10.9414 12.5407 10.9414 13.1039C10.9414 13.6672 11.3979 14.1237 11.9612 14.1237H24.2055L22.5812 15.7482C22.1829 16.1463 22.1829 16.792 22.5812 17.1902C22.7804 17.3893 23.0413 17.4889 23.3023 17.4889C23.5634 17.4889 23.8243 17.3893 24.0235 17.1902L26.307 14.9066C27.301 13.9126 27.301 12.2953 26.307 11.3012Z" fill="white"/>
</svg>
