<svg width="26" height="36" viewBox="0 0 26 36" fill="none" xmlns="http://www.w3.org/2000/svg">
<path d="M4.92109 26.2924H21.0796C21.4099 26.2924 21.678 26.0243 21.678 25.694C21.678 25.3636 21.4099 25.0955 21.0796 25.0955H4.92109C4.59074 25.0955 4.32263 25.3636 4.32263 25.694C4.32263 26.0243 4.59074 26.2924 4.92109 26.2924Z" fill="white"/>
<path d="M15.1281 29.7236H4.92109C4.59074 29.7236 4.32263 29.9917 4.32263 30.3221C4.32263 30.6524 4.59074 30.9206 4.92109 30.9206H15.1281C15.4584 30.9206 15.7265 30.6524 15.7265 30.3221C15.7265 29.9917 15.4584 29.7236 15.1281 29.7236Z" fill="white"/>
<path d="M24.3794 0H1.62104C0.727331 0 0 0.726932 0 1.62103V34.2871C0 35.1808 0.726932 35.9081 1.62104 35.9081H18.9848H18.9852C19.0495 35.9081 19.1105 35.8954 19.1684 35.8762C19.1775 35.8734 19.1863 35.8714 19.1951 35.8678C19.2541 35.8455 19.3076 35.8136 19.3559 35.7749C19.3603 35.7713 19.3654 35.7705 19.3698 35.7669L25.7873 30.3552C25.7937 30.35 25.7981 30.3436 25.8041 30.3381C25.8201 30.3237 25.8344 30.3081 25.8484 30.2922C25.8608 30.2782 25.8727 30.2642 25.8839 30.2495C25.8955 30.2335 25.9054 30.2172 25.9154 30.2C25.9254 30.1833 25.935 30.1669 25.9429 30.1493C25.9509 30.1318 25.9573 30.1138 25.9641 30.0959C25.9705 30.0775 25.9769 30.0592 25.9813 30.04C25.9856 30.0221 25.9884 30.0033 25.9912 29.985C25.9944 29.9642 25.9968 29.9435 25.9976 29.9223C25.998 29.9139 26 29.9064 26 29.8984V1.62103C26 0.726932 25.2731 0 24.3794 0ZM1.19732 34.2871V1.62103C1.19732 1.38724 1.38763 1.19692 1.62104 1.19692H24.379C24.6128 1.19692 24.8031 1.38724 24.8031 1.62103V29.2995H18.9852C18.6549 29.2995 18.3868 29.5676 18.3868 29.898V34.7108H1.62104C1.38763 34.7108 1.19732 34.5205 1.19732 34.2871ZM23.7637 30.4964L19.5837 34.0218V30.4964H23.7637Z" fill="white"/>
<path d="M4.92109 22.0103H21.0796C21.4099 22.0103 21.678 21.7421 21.678 21.4118C21.678 21.0814 21.4099 20.8133 21.0796 20.8133H5.51956V5.25331C5.51956 4.92296 5.25145 4.65485 4.92109 4.65485C4.59074 4.65485 4.32263 4.92296 4.32263 5.25331V21.4118C4.32263 21.7421 4.59074 22.0103 4.92109 22.0103Z" fill="white"/>
<path d="M6.38081 19.7904C6.47976 19.8526 6.58988 19.8821 6.69919 19.8821C6.89788 19.8821 7.09218 19.7832 7.20629 19.6024L10.5637 14.2685L12.6599 17.8402C12.7672 18.0225 12.9623 18.1346 13.1734 18.1358C13.1742 18.1358 13.1754 18.1358 13.1762 18.1358C13.3864 18.1358 13.5815 18.0257 13.6892 17.845L19.6683 7.87377L19.705 8.15585C19.7441 8.45787 20.0014 8.67771 20.2975 8.67771C20.323 8.67771 20.3489 8.67611 20.3749 8.67252C20.7028 8.63023 20.9338 8.3302 20.8915 8.00224L20.6338 6.01295C20.6334 6.00936 20.6318 6.00617 20.6314 6.00258C20.6298 5.99061 20.627 5.97904 20.6246 5.96747C20.621 5.95071 20.6166 5.93475 20.6119 5.91879C20.6083 5.90682 20.6055 5.89486 20.6011 5.88368C20.5999 5.88009 20.5995 5.8765 20.5979 5.87251C20.5955 5.86653 20.5919 5.86174 20.5895 5.85576C20.5831 5.84099 20.5763 5.82703 20.5688 5.81307C20.562 5.8003 20.556 5.78753 20.5484 5.77516C20.5432 5.76718 20.538 5.7592 20.5325 5.75162C20.5245 5.74005 20.5157 5.72888 20.5069 5.71811C20.4969 5.70574 20.4874 5.69337 20.4766 5.6818C20.4702 5.67502 20.4638 5.66904 20.457 5.66265C20.4483 5.65388 20.4387 5.6459 20.4291 5.63752C20.4152 5.62555 20.4016 5.61398 20.3864 5.60321C20.3796 5.59842 20.3721 5.59443 20.3653 5.58964C20.3593 5.58565 20.3545 5.58086 20.3481 5.57687C20.3441 5.57448 20.3394 5.57328 20.3354 5.57089C20.3182 5.56131 20.301 5.55214 20.2831 5.54416C20.2799 5.54256 20.2763 5.54176 20.2731 5.54017C20.2687 5.53817 20.2639 5.53658 20.2592 5.53498C20.248 5.53059 20.2372 5.5258 20.2256 5.52221C20.2085 5.51663 20.1909 5.51184 20.173 5.50785C20.1702 5.50705 20.1674 5.50705 20.1642 5.50625C20.1598 5.50546 20.1554 5.50506 20.1514 5.50426C20.1371 5.50147 20.1227 5.49867 20.1083 5.49708C20.0932 5.49548 20.078 5.49429 20.0625 5.49389C20.0553 5.49349 20.0477 5.49428 20.0405 5.49428C20.0214 5.49428 20.0026 5.49508 19.9839 5.49668C19.9771 5.49748 19.9703 5.49628 19.9635 5.49748C19.9591 5.49788 19.9547 5.49987 19.9503 5.50067C19.9408 5.50226 19.9316 5.50426 19.922 5.50625C19.9037 5.50985 19.8861 5.51463 19.8682 5.51982C19.8566 5.52341 19.8446 5.5262 19.8334 5.53059C19.8299 5.53179 19.8263 5.53219 19.8223 5.53378L17.9188 6.27628C17.6108 6.39637 17.4587 6.74348 17.5784 7.05109C17.6706 7.28768 17.8968 7.43211 18.1358 7.43211C18.2084 7.43211 18.2818 7.41894 18.3533 7.39101L18.6254 7.28488L13.1801 16.3656L11.0963 12.8151C11.0927 12.8087 11.0875 12.8035 11.0835 12.7975C11.072 12.7796 11.0592 12.7624 11.0456 12.7457C11.0337 12.7309 11.0217 12.7161 11.0089 12.7026C10.9958 12.689 10.9818 12.677 10.9674 12.6647C10.9511 12.6507 10.9343 12.6371 10.9168 12.6252C10.9108 12.6212 10.906 12.6156 10.8996 12.6116C10.8904 12.6056 10.8801 12.6024 10.8709 12.5972C10.8525 12.5869 10.8342 12.5777 10.8146 12.5693C10.7963 12.5617 10.7783 12.5549 10.7596 12.5494C10.742 12.5438 10.7245 12.539 10.7065 12.535C10.6862 12.5306 10.6658 12.5274 10.6455 12.5254C10.6279 12.5234 10.6103 12.5222 10.5924 12.5218C10.572 12.5214 10.5517 12.5222 10.5313 12.5238C10.513 12.5254 10.495 12.5274 10.4771 12.5306C10.4567 12.5342 10.4372 12.539 10.4176 12.5446C10.4005 12.5494 10.3833 12.5549 10.3666 12.5613C10.3462 12.5693 10.3267 12.5785 10.3071 12.5885C10.2979 12.5932 10.288 12.596 10.2788 12.6016C10.2724 12.6052 10.2676 12.6104 10.2612 12.6144C10.2429 12.626 10.2253 12.6395 10.2082 12.6531C10.1938 12.6647 10.1795 12.6762 10.1663 12.689C10.1523 12.7026 10.1396 12.7169 10.1272 12.7321C10.1136 12.748 10.1005 12.7644 10.0885 12.782C10.0841 12.7883 10.0789 12.7931 10.0749 12.7995L6.19329 18.9665C6.01695 19.2446 6.10113 19.614 6.38081 19.7904Z" fill="white"/>
</svg>
