<svg width="12" height="14" viewBox="0 0 12 14" fill="none" xmlns="http://www.w3.org/2000/svg">
<path fill-rule="evenodd" clip-rule="evenodd" d="M10.6951 14H1.30515C0.584273 14 0 13.4195 0 12.7037V5.96404C0 5.24806 0.584273 4.66775 1.30515 4.66775H1.55639V4.41346H1.56466C1.56553 1.97599 3.55545 0 6.00979 0C8.46478 0 10.4336 1.97664 10.4336 4.41497C10.4336 4.5042 10.4371 4.58694 10.4373 4.66775H10.6948C11.4157 4.66775 12 5.24806 12 5.96404V12.7037C12.0002 13.4197 11.4162 14 10.6951 14ZM6.01871 1.5562C4.43273 1.5562 3.14716 2.83306 3.1465 4.40784H3.14106V4.66775H8.87808V4.64722C8.88547 4.57204 8.89113 4.49426 8.89113 4.40892C8.89091 2.83349 7.6049 1.5562 6.01871 1.5562ZM10.4416 6.74787C10.4416 6.46139 10.2078 6.22935 9.91959 6.22935H2.08193C1.79371 6.22935 1.55987 6.46139 1.55987 6.74787V11.9285C1.55987 12.215 1.79371 12.447 2.08193 12.447H9.91959C10.2078 12.447 10.4416 12.2148 10.4416 11.9285V6.74787ZM6.12725 10.8841H5.86622C5.50709 10.8841 5.21604 10.5951 5.21604 10.2384V8.44688C5.21604 8.09019 5.50709 7.80111 5.86622 7.80111H6.12725C6.48639 7.80111 6.77744 8.09019 6.77744 8.44688V10.2384C6.77765 10.5951 6.48639 10.8841 6.12725 10.8841Z" fill="white"/>
</svg>
