<svg width="26" height="29" viewBox="0 0 26 29" fill="none" xmlns="http://www.w3.org/2000/svg">
<path d="M12.0318 28.9143C11.7443 28.9936 11.4431 29.0182 11.1456 28.9867C10.848 28.9551 10.56 28.868 10.2983 28.7304C10.0366 28.5928 9.80628 28.4075 9.62076 28.1851C9.43525 27.9627 9.2982 27.7077 9.21754 27.4348L8.62655 25.4287H5.41208C5.00145 25.4287 4.59484 25.3522 4.21546 25.2035C3.83609 25.0548 3.49138 24.8368 3.20102 24.5621C2.91066 24.2873 2.68033 23.9611 2.52319 23.6021C2.36605 23.2431 2.28517 22.8584 2.28517 22.4698V19.4665L1.45653 19.2062C1.17478 19.1177 0.915737 18.9743 0.696068 18.7854C0.476399 18.5964 0.300977 18.3661 0.181094 18.1091C0.0612106 17.8521 -0.000476649 17.5742 2.77316e-06 17.2933C0.000482195 17.0124 0.0631178 16.7347 0.183878 16.4781L1.94121 12.7439C2.16835 12.2637 2.28557 11.7433 2.28517 11.2172C2.28738 8.87571 3.06202 6.59333 4.50098 4.68853C5.93994 2.78372 7.97143 1.35151 10.312 0.591779C10.4287 1.34925 10.5329 2.12251 10.6247 2.91155C8.88025 3.58004 7.38586 4.72514 6.33215 6.20075C5.27844 7.67635 4.71319 9.41555 4.70853 11.1964C4.70997 12.0417 4.52242 12.8776 4.15819 13.6494L2.51343 17.1379L3.51717 17.4575C3.86135 17.5647 4.16094 17.772 4.3732 18.0499C4.58546 18.3278 4.69953 18.6621 4.69915 19.005V22.4876C4.69915 22.5762 4.71759 22.6639 4.75342 22.7457C4.78924 22.8276 4.84176 22.902 4.90796 22.9646C4.97416 23.0272 5.05276 23.0769 5.13925 23.1108C5.22575 23.1447 5.31846 23.1622 5.41208 23.1622H10.437L11.5033 26.7129L22.2693 23.8043L20.487 17.8865L20.9654 17.416C21.9343 16.4646 22.668 15.3216 23.1136 14.0695C23.5592 12.8173 23.7057 11.4872 23.5424 10.175C23.379 8.8628 22.91 7.60125 22.1692 6.48132C21.4283 5.36138 20.434 4.41097 19.2581 3.69861C19.183 2.77544 19.0892 1.86805 18.9767 0.976435C20.6585 1.68565 22.1424 2.75611 23.3106 4.10284C24.4789 5.44957 25.2992 7.03546 25.7065 8.73462C26.1139 10.4338 26.097 12.1994 25.6572 13.8913C25.2174 15.5832 24.3668 17.1547 23.173 18.4812L24.6207 23.2865C24.7042 23.5585 24.7298 23.8434 24.6963 24.1248C24.6627 24.4062 24.5706 24.6786 24.4253 24.9262C24.2799 25.1737 24.0842 25.3916 23.8494 25.5673C23.6146 25.7429 23.3454 25.8728 23.0573 25.9495L12.0318 28.9143ZM10.1337 17.8599C9.80671 17.6735 9.42446 17.593 9.0448 17.6305C8.66513 17.668 8.3087 17.8215 8.02939 18.0677C7.75008 18.3139 7.56309 18.6395 7.49669 18.9952C7.4303 19.3509 7.48811 19.7174 7.66139 20.0393C7.83466 20.3611 8.11398 20.6208 8.4571 20.7791C8.80022 20.9374 9.18848 20.9857 9.56316 20.9167C9.93785 20.8476 10.2786 20.665 10.5339 20.3964C10.7891 20.1279 10.945 19.7879 10.978 19.4281C12.407 18.6022 13.5679 17.4198 14.3332 16.0106C15.2294 16.167 16.1552 16.0274 16.9557 15.6152C17.7562 15.203 18.3829 14.5432 18.7308 13.7461C19.0787 12.949 19.1268 12.0631 18.867 11.2365C18.6073 10.4099 18.0554 9.69276 17.3038 9.20511C17.3009 6.21384 17.092 3.22593 16.6784 0.260383C16.1212 0.14448 15.5558 0.0673427 14.9867 0.0295897C14.7074 0.00986375 14.427 7.76801e-07 14.1456 7.76801e-07C13.5785 -0.000197009 13.0122 0.0373751 12.4508 0.112439C12.9041 3.06001 13.1372 6.03417 13.1481 9.01278C12.5701 9.31291 12.08 9.7444 11.7221 10.2684C11.3643 10.7923 11.1497 11.3923 11.0979 12.0143C11.0461 12.6363 11.1587 13.2607 11.4254 13.8312C11.6921 14.4018 12.1047 14.9006 12.6259 15.2827C12.0522 16.3362 11.1919 17.2258 10.1337 17.8599Z" fill="white"/>
</svg>
